solid OpenSCAD_Model
  facet normal -1 0 0
    outer loop
      vertex 2.5 49.7875 5
      vertex 2.5 97.075 10
      vertex 2.5 97.075 5
    endloop
  endfacet
  facet normal -1 -0 0
    outer loop
      vertex 2.5 97.075 10
      vertex 2.5 49.7875 5
      vertex 2.5 49.7875 10
    endloop
  endfacet
  facet normal 0 0 1
    outer loop
      vertex 74.175 97.075 10
      vertex 64.175 49.7875 10
      vertex 74.175 49.7875 10
    endloop
  endfacet
  facet normal 0 0 1
    outer loop
      vertex 64.175 49.7875 10
      vertex 12.5 49.7875 10
      vertex 64.175 2.5 10
    endloop
  endfacet
  facet normal 0 0 1
    outer loop
      vertex 74.175 97.075 10
      vertex 12.5 49.7875 10
      vertex 64.175 49.7875 10
    endloop
  endfacet
  facet normal -0 0 1
    outer loop
      vertex 2.5 97.075 10
      vertex 12.5 49.7875 10
      vertex 74.175 97.075 10
    endloop
  endfacet
  facet normal 0 0 1
    outer loop
      vertex 12.5 49.7875 10
      vertex 2.5 97.075 10
      vertex 2.5 49.7875 10
    endloop
  endfacet
  facet normal 0 0 1
    outer loop
      vertex 64.175 2.5 10
      vertex 12.5 49.7875 10
      vertex 12.5 2.5 10
    endloop
  endfacet
  facet normal -1 0 0
    outer loop
      vertex 12.5 2.5 5
      vertex 12.5 49.7875 10
      vertex 12.5 49.7875 5
    endloop
  endfacet
  facet normal -1 -0 0
    outer loop
      vertex 12.5 49.7875 10
      vertex 12.5 2.5 5
      vertex 12.5 2.5 10
    endloop
  endfacet
  facet normal 0 -1 0
    outer loop
      vertex 2.5 49.7875 5
      vertex 12.5 49.7875 10
      vertex 2.5 49.7875 10
    endloop
  endfacet
  facet normal 0 -1 -0
    outer loop
      vertex 12.5 49.7875 10
      vertex 2.5 49.7875 5
      vertex 12.5 49.7875 5
    endloop
  endfacet
  facet normal 0 0 -1
    outer loop
      vertex 64.175 2.5 5
      vertex 12.5 2.5 5
      vertex 64.175 49.7875 5
    endloop
  endfacet
  facet normal 0 0 -1
    outer loop
      vertex 64.175 49.7875 5
      vertex 74.175 97.075 5
      vertex 74.175 49.7875 5
    endloop
  endfacet
  facet normal 0 0 -1
    outer loop
      vertex 12.5 49.7875 5
      vertex 64.175 49.7875 5
      vertex 12.5 2.5 5
    endloop
  endfacet
  facet normal 0 0 -1
    outer loop
      vertex 64.175 49.7875 5
      vertex 12.5 49.7875 5
      vertex 74.175 97.075 5
    endloop
  endfacet
  facet normal 0 0 -1
    outer loop
      vertex 2.5 97.075 5
      vertex 12.5 49.7875 5
      vertex 2.5 49.7875 5
    endloop
  endfacet
  facet normal 0 0 -1
    outer loop
      vertex 12.5 49.7875 5
      vertex 2.5 97.075 5
      vertex 74.175 97.075 5
    endloop
  endfacet
  facet normal 0 -1 0
    outer loop
      vertex 12.5 2.5 5
      vertex 64.175 2.5 10
      vertex 12.5 2.5 10
    endloop
  endfacet
  facet normal 0 -1 -0
    outer loop
      vertex 64.175 2.5 10
      vertex 12.5 2.5 5
      vertex 64.175 2.5 5
    endloop
  endfacet
  facet normal 1 -0 0
    outer loop
      vertex 64.175 2.5 10
      vertex 64.175 49.7875 5
      vertex 64.175 49.7875 10
    endloop
  endfacet
  facet normal 1 0 0
    outer loop
      vertex 64.175 49.7875 5
      vertex 64.175 2.5 10
      vertex 64.175 2.5 5
    endloop
  endfacet
  facet normal 1 -0 0
    outer loop
      vertex 74.175 49.7875 10
      vertex 74.175 97.075 5
      vertex 74.175 97.075 10
    endloop
  endfacet
  facet normal 1 0 0
    outer loop
      vertex 74.175 97.075 5
      vertex 74.175 49.7875 10
      vertex 74.175 49.7875 5
    endloop
  endfacet
  facet normal 0 -1 0
    outer loop
      vertex 64.175 49.7875 5
      vertex 74.175 49.7875 10
      vertex 64.175 49.7875 10
    endloop
  endfacet
  facet normal 0 -1 -0
    outer loop
      vertex 74.175 49.7875 10
      vertex 64.175 49.7875 5
      vertex 74.175 49.7875 5
    endloop
  endfacet
  facet normal 0 1 -0
    outer loop
      vertex 74.175 97.075 5
      vertex 2.5 97.075 10
      vertex 74.175 97.075 10
    endloop
  endfacet
  facet normal 0 1 0
    outer loop
      vertex 2.5 97.075 10
      vertex 74.175 97.075 5
      vertex 2.5 97.075 5
    endloop
  endfacet
endsolid OpenSCAD_Model
